<?xml version="1.0" encoding="UTF-8" standalone="no"?>
<!-- Created with Inkscape (http://www.inkscape.org/) -->

<svg
   width="7.5895076mm"
   height="8.8430252mm"
   viewBox="0 0 7.5895076 8.8430252"
   version="1.1"
   id="svg1"
   xml:space="preserve"
   xmlns:inkscape="http://www.inkscape.org/namespaces/inkscape"
   xmlns:sodipodi="http://sodipodi.sourceforge.net/DTD/sodipodi-0.dtd"
   xmlns="http://www.w3.org/2000/svg"
   xmlns:svg="http://www.w3.org/2000/svg"><sodipodi:namedview
     id="namedview1"
     pagecolor="#ffffff"
     bordercolor="#000000"
     borderopacity="0.25"
     inkscape:showpageshadow="2"
     inkscape:pageopacity="0.0"
     inkscape:pagecheckerboard="true"
     inkscape:deskcolor="#d1d1d1"
     inkscape:document-units="mm" /><defs
     id="defs1" /><g
     inkscape:label="Layer 1"
     inkscape:groupmode="layer"
     id="layer1"
     transform="translate(-112.0046,-59.936701)"><g
       id="g1"
       transform="matrix(0.26458333,0,0,0.26458333,38.825217,82.354168)"><g
         id="OBJECTS"
         transform="translate(17.602842,-127.28208)">&#10;	&#10;	&#10;	&#10;	&#10;	&#10;	&#10;	&#10;	&#10;	&#10;	&#10;	&#10;	&#10;	&#10;	&#10;	&#10;	&#10;<g
   id="g31"
   transform="translate(52.397158,233.28208)">&#10;	<radialGradient
   id="SVGID_1_"
   cx="180"
   cy="144"
   r="162.9969"
   gradientUnits="userSpaceOnUse"
   gradientTransform="translate(-6.7703239,88.01421)">&#10;		<stop
   offset="0"
   style="stop-color:#FFFFFF"
   id="stop1" />&#10;		<stop
   offset="1"
   style="stop-color:#F5F5F5"
   id="stop2" />&#10;	</radialGradient>&#10;	&#10;	<g
   id="g30"
   transform="translate(9.4784534,-291.12393)">&#10;		<polygon
   style="fill:#ff2b47"
   points="56.58,57.012 22.284,34.48 22.284,39.266 49.296,57.012 22.284,74.759 22.284,79.544 "
   id="polygon2" />&#10;		<polygon
   style="fill:#ff2b47"
   points="114.854,57.012 80.557,34.48 80.557,43.553 101.044,57.012 80.557,70.472 80.557,79.544 "
   id="polygon3" />&#10;		<polygon
   style="fill:#ff2b47"
   points="173.128,57.012 138.831,34.48 138.831,47.74 152.944,57.012 138.831,66.284 138.831,79.544 "
   id="polygon4" />&#10;		<polygon
   style="fill:#ff2b47"
   points="231.401,57.012 197.105,34.48 197.105,49.302 208.84,57.012 197.105,64.722 197.105,79.544 "
   id="polygon5" />&#10;		<polygon
   style="fill:#ff2b47"
   points="289.675,57.012 255.379,34.48 255.379,52.227 262.663,57.012 255.379,61.798 255.379,79.544 "
   id="polygon6" />&#10;		<polygon
   style="fill:#ff2b47"
   points="313.652,79.544 347.949,57.012 313.652,34.48 "
   id="polygon7" />&#10;		<path
   style="fill:#000e40"
   d="M 53.185,114.877 26.418,97.291 c -1.775,-1.166 -4.134,0.107 -4.134,2.231 v 35.17 c 0,2.123 2.36,3.397 4.134,2.231 l 26.767,-17.585 c 1.604,-1.054 1.604,-3.407 0,-4.461 z"
   id="path7" />&#10;		<path
   style="fill:#000e40"
   d="M 109.306,113.462 87.313,99.014 c -2.9,-1.905 -6.756,0.175 -6.756,3.645 v 28.897 c 0,3.47 3.856,5.55 6.756,3.645 l 21.992,-14.449 c 2.623,-1.722 2.623,-5.567 10e-4,-7.29 z"
   id="path8" />&#10;		<path
   style="fill:#000e40"
   d="m 165.626,112.179 -17.661,-11.603 c -3.921,-2.576 -9.134,0.237 -9.134,4.928 v 23.205 c 0,4.692 5.213,7.504 9.134,4.928 l 17.661,-11.603 c 3.545,-2.328 3.545,-7.526 0,-9.855 z"
   id="path9" />&#10;		<path
   style="fill:#000e40"
   d="M 222.708,111.396 207.69,101.53 c -4.544,-2.985 -10.585,0.274 -10.585,5.711 v 19.733 c 0,5.437 6.041,8.697 10.585,5.711 l 15.018,-9.867 c 4.109,-2.699 4.109,-8.723 0,-11.422 z"
   id="path10" />&#10;		<path
   style="fill:#000e40"
   d="M 279.393,110.352 267.9,102.801 c -5.375,-3.531 -12.521,0.324 -12.521,6.755 v 15.101 c 0,6.431 7.146,10.287 12.521,6.755 l 11.493,-7.551 c 4.859,-3.191 4.859,-10.317 0,-13.509 z"
   id="path11" />&#10;		<path
   style="fill:#000e40"
   d="m 335.903,109.193 -7.582,-4.981 c -6.297,-4.137 -14.668,0.38 -14.668,7.914 v 9.962 c 0,7.534 8.372,12.051 14.668,7.914 l 7.582,-4.981 c 5.693,-3.74 5.693,-12.088 0,-15.828 z"
   id="path12" />&#10;		<polygon
   style="fill:#ff2b47"
   points="22.284,154.67 48.942,177.202 22.284,199.734 56.58,177.202 "
   id="polygon12" />&#10;		<polygon
   style="fill:#ff2b47"
   points="80.557,154.67 104.484,177.202 80.557,199.734 114.854,177.202 "
   id="polygon13" />&#10;		<polygon
   style="fill:#ff2b47"
   points="138.831,154.67 159.115,177.202 138.831,199.734 173.128,177.202 "
   id="polygon14" />&#10;		<polygon
   style="fill:#ff2b47"
   points="197.105,154.67 211.926,177.202 197.105,199.734 231.401,177.202 "
   id="polygon15" />&#10;		<polygon
   style="fill:#ff2b47"
   points="255.379,154.67 268.075,177.202 255.379,199.734 289.675,177.202 "
   id="polygon16" />&#10;		<polygon
   style="fill:#ff2b47"
   points="313.652,154.67 318.761,177.202 313.652,199.734 347.949,177.202 "
   id="polygon17" />&#10;		<g
   id="g19">&#10;			<polygon
   style="fill:#000e40"
   points="26.184,253.069 50.191,237.297 26.184,221.524 "
   id="polygon18" />&#10;			<polygon
   style="fill:#000e40"
   points="20.376,253.069 44.384,237.297 20.376,221.524 "
   id="polygon19" />&#10;		</g>&#10;		<g
   id="g21">&#10;			<polygon
   style="fill:#000e40"
   points="83.729,253.069 107.736,237.297 83.729,221.524 "
   id="polygon20" />&#10;			<polygon
   style="fill:#000e40"
   points="74.522,253.069 98.53,237.297 74.522,221.524 "
   id="polygon21" />&#10;		</g>&#10;		<g
   id="g23">&#10;			<polygon
   style="fill:#000e40"
   points="140.88,253.069 164.887,237.297 140.88,221.524 "
   id="polygon22" />&#10;			<polygon
   style="fill:#000e40"
   points="126.433,253.069 150.44,237.297 126.433,221.524 "
   id="polygon23" />&#10;		</g>&#10;		<g
   id="g25">&#10;			<polygon
   style="fill:#000e40"
   points="198.729,253.069 222.736,237.297 198.729,221.524 "
   id="polygon24" />&#10;			<polygon
   style="fill:#000e40"
   points="182.299,253.069 206.306,237.297 182.299,221.524 "
   id="polygon25" />&#10;		</g>&#10;		<g
   id="g27">&#10;			<polygon
   style="fill:#000e40"
   points="256.357,253.069 280.365,237.297 256.357,221.524 "
   id="polygon26" />&#10;			<polygon
   style="fill:#000e40"
   points="236.918,253.069 260.925,237.297 236.918,221.524 "
   id="polygon27" />&#10;		</g>&#10;		<g
   id="g29">&#10;			<polygon
   style="fill:#000e40"
   points="313.698,253.069 337.705,237.297 313.698,221.524 "
   id="polygon28" />&#10;			<polygon
   style="fill:#000e40"
   points="289.903,253.069 313.91,237.297 289.903,221.524 "
   id="polygon29" />&#10;		</g>&#10;	</g>&#10;</g></g></g></g></svg>
